<svg xmlns="http://www.w3.org/2000/svg" version="1.1" xmlns:xlink="http://www.w3.org/1999/xlink" xmlns:svgjs="http://svgjs.dev/svgjs" viewBox="0 0 11.300758099423055 11.376808523799559"><g transform="matrix(1,0,0,1,0.9448922333052776,8.465941290494282)"><rect width="11.376808523799559" height="11.376808523799559" x="-0.9829174454935297" y="-8.465941290494282" fill="#ffffff"></rect><g><path d=" M 0.87525 0.5437499999999998 Q 0.8310000000000001 0.6224999999999998 0.74175 0.6697499999999998 Q 0.6525 0.7169999999999999 0.5235 0.7169999999999999 L 0.378 0.7169999999999999 L 0.378 1.0739999999999998 L 0.084 1.0739999999999998 L 0.084 0.016499999999999737 L 0.5235 0.016499999999999737 Q 0.651 0.016499999999999737 0.74025 0.06149999999999989 Q 0.8295 0.10649999999999982 0.8745 0.18599999999999983 Q 0.9195 0.26549999999999985 0.9195 0.3689999999999999 Q 0.9195 0.46499999999999986 0.87525 0.5437499999999998 M 0.6195 0.3689999999999999 Q 0.6195 0.25349999999999984 0.495 0.25349999999999984 L 0.378 0.25349999999999984 L 0.378 0.4829999999999999 L 0.495 0.4829999999999999 Q 0.6195 0.4829999999999999 0.6195 0.3689999999999999 M 1.5719794921874999 1.0739999999999998 L 1.3619794921875 0.6839999999999998 L 1.3304794921875 0.6839999999999998 L 1.3304794921875 1.0739999999999998 L 1.0364794921875 1.0739999999999998 L 1.0364794921875 0.016499999999999737 L 1.4999794921874998 0.016499999999999737 Q 1.6274794921875 0.016499999999999737 1.7159794921875 0.06074999999999986 Q 1.8044794921874998 0.10499999999999987 1.8494794921875 0.1822499999999998 Q 1.8944794921875001 0.25949999999999984 1.8944794921875001 0.3554999999999998 Q 1.8944794921875001 0.4634999999999998 1.8352294921875 0.5452499999999998 Q 1.7759794921875 0.6269999999999998 1.6619794921875 0.6614999999999998 L 1.9004794921875 1.0739999999999998 L 1.5719794921874999 1.0739999999999998 M 1.3304794921875 0.4829999999999999 L 1.4759794921874998 0.4829999999999999 Q 1.5359794921874999 0.4829999999999999 1.5659794921875 0.4544999999999998 Q 1.5959794921875 0.4259999999999998 1.5959794921875 0.3719999999999998 Q 1.5959794921875 0.32099999999999984 1.5652294921875 0.29174999999999984 Q 1.5344794921874998 0.26249999999999984 1.4759794921874998 0.26249999999999984 L 1.3304794921875 0.26249999999999984 L 1.3304794921875 0.4829999999999999 M 2.69549560546875 0.9014999999999999 L 2.32049560546875 0.9014999999999999 L 2.26349560546875 1.0739999999999998 L 1.95449560546875 1.0739999999999998 L 2.33999560546875 0.016499999999999737 L 2.67899560546875 0.016499999999999737 L 3.0629956054687497 1.0739999999999998 L 2.75249560546875 1.0739999999999998 L 2.69549560546875 0.9014999999999999 M 2.62199560546875 0.6764999999999999 L 2.50799560546875 0.3344999999999998 L 2.3954956054687497 0.6764999999999999 L 2.62199560546875 0.6764999999999999 M 3.2535029296875 0.9967499999999998 Q 3.1350029296875 0.9089999999999998 3.1260029296875 0.7454999999999998 L 3.4395029296875 0.7454999999999998 Q 3.4440029296874997 0.8009999999999998 3.4725029296875 0.8264999999999998 Q 3.5010029296875 0.8519999999999999 3.5460029296875 0.8519999999999999 Q 3.5865029296874997 0.8519999999999999 3.6127529296875 0.8317499999999999 Q 3.6390029296875 0.8114999999999999 3.6390029296875 0.7754999999999999 Q 3.6390029296875 0.7289999999999999 3.5955029296875 0.7034999999999998 Q 3.5520029296874998 0.6779999999999998 3.4545029296875 0.6464999999999999 Q 3.3510029296874997 0.6119999999999999 3.2872529296875 0.5797499999999998 Q 3.2235029296874997 0.5474999999999999 3.1762529296874997 0.48524999999999985 Q 3.1290029296874997 0.4229999999999998 3.1290029296874997 0.3224999999999998 Q 3.1290029296874997 0.2204999999999998 3.1800029296875 0.14774999999999983 Q 3.2310029296875 0.07499999999999984 3.3210029296875 0.03749999999999987 Q 3.4110029296874997 -2.220446049250313e-16 3.5250029296875 -2.220446049250313e-16 Q 3.7095029296875 -2.220446049250313e-16 3.8197529296874997 0.08624999999999983 Q 3.9300029296875 0.17249999999999988 3.9375029296874997 0.3284999999999998 L 3.6180029296875 0.3284999999999998 Q 3.6165029296875 0.28049999999999986 3.5887529296875 0.25649999999999984 Q 3.5610029296874997 0.23249999999999982 3.5175029296875 0.23249999999999982 Q 3.4845029296875 0.23249999999999982 3.4635029296875 0.2519999999999998 Q 3.4425029296874996 0.27149999999999985 3.4425029296874996 0.3074999999999998 Q 3.4425029296874996 0.3374999999999998 3.4657529296874996 0.35924999999999985 Q 3.4890029296875 0.3809999999999998 3.5235029296875 0.3967499999999998 Q 3.5580029296875 0.41249999999999987 3.6255029296875 0.4364999999999998 Q 3.7260029296874997 0.47099999999999986 3.7912529296875 0.5047499999999998 Q 3.8565029296874997 0.5384999999999999 3.9037529296874998 0.5992499999999998 Q 3.9510029296874998 0.6599999999999998 3.9510029296874998 0.7529999999999999 Q 3.9510029296874998 0.8474999999999998 3.9037529296874998 0.9224999999999999 Q 3.8565029296874997 0.9974999999999998 3.7672529296875 1.041 Q 3.6780029296874996 1.0844999999999998 3.5565029296875 1.0844999999999998 Q 3.3720029296874996 1.0844999999999998 3.2535029296875 0.9967499999999998 M 5.03249560546875 0.016499999999999737 L 5.03249560546875 1.0739999999999998 L 4.73849560546875 1.0739999999999998 L 4.73849560546875 0.6494999999999999 L 4.37999560546875 0.6494999999999999 L 4.37999560546875 1.0739999999999998 L 4.085995605468749 1.0739999999999998 L 4.085995605468749 0.016499999999999737 L 4.37999560546875 0.016499999999999737 L 4.37999560546875 0.4139999999999998 L 4.73849560546875 0.4139999999999998 L 4.73849560546875 0.016499999999999737 L 5.03249560546875 0.016499999999999737 M 5.867967041015625 0.9014999999999999 L 5.492967041015625 0.9014999999999999 L 5.4359670410156244 1.0739999999999998 L 5.126967041015624 1.0739999999999998 L 5.512467041015625 0.016499999999999737 L 5.851467041015625 0.016499999999999737 L 6.2354670410156245 1.0739999999999998 L 5.924967041015625 1.0739999999999998 L 5.867967041015625 0.9014999999999999 M 5.794467041015625 0.6764999999999999 L 5.680467041015625 0.3344999999999998 L 5.567967041015625 0.6764999999999999 L 5.794467041015625 0.6764999999999999 M 7.309474365234375 1.0739999999999998 L 7.0154743652343745 1.0739999999999998 L 6.623974365234375 0.4829999999999999 L 6.623974365234375 1.0739999999999998 L 6.329974365234374 1.0739999999999998 L 6.329974365234374 0.016499999999999737 L 6.623974365234375 0.016499999999999737 L 7.0154743652343745 0.6149999999999998 L 7.0154743652343745 0.016499999999999737 L 7.309474365234375 0.016499999999999737 L 7.309474365234375 1.0739999999999998 M 8.272496337890624 0.016499999999999737 L 8.272496337890624 0.25049999999999983 L 7.990496337890624 0.25049999999999983 L 7.990496337890624 1.0739999999999998 L 7.696496337890625 1.0739999999999998 L 7.696496337890625 0.25049999999999983 L 7.417496337890625 0.25049999999999983 L 7.417496337890625 0.016499999999999737 L 8.272496337890624 0.016499999999999737 M 9.327002197265625 0.016499999999999737 L 9.327002197265625 1.0739999999999998 L 9.033002197265624 1.0739999999999998 L 9.033002197265624 0.6494999999999999 L 8.674502197265625 0.6494999999999999 L 8.674502197265625 1.0739999999999998 L 8.380502197265624 1.0739999999999998 L 8.380502197265624 0.016499999999999737 L 8.674502197265625 0.016499999999999737 L 8.674502197265625 0.4139999999999998 L 9.033002197265624 0.4139999999999998 L 9.033002197265624 0.016499999999999737 L 9.327002197265625 0.016499999999999737" fill="#102036" fill-rule="nonzero"></path></g><g><path d=" M 2.720612182617187 1.4342249999999999 L 2.5833621826171873 1.9607249999999998 L 2.428112182617187 1.9607249999999998 L 2.344112182617187 1.6142249999999998 L 2.2571121826171874 1.9607249999999998 L 2.1018621826171873 1.9607249999999998 L 1.9683621826171873 1.4342249999999999 L 2.1056121826171874 1.4342249999999999 L 2.181362182617187 1.8174749999999997 L 2.275112182617187 1.4342249999999999 L 2.416112182617187 1.4342249999999999 L 2.506112182617187 1.8174749999999997 L 2.5826121826171873 1.4342249999999999 L 2.720612182617187 1.4342249999999999 M 2.9133636474609372 1.5369749999999998 L 2.9133636474609372 1.6434749999999998 L 3.085113647460937 1.6434749999999998 L 3.085113647460937 1.7424749999999998 L 2.9133636474609372 1.7424749999999998 L 2.9133636474609372 1.8579749999999997 L 3.107613647460937 1.8579749999999997 L 3.107613647460937 1.9607249999999998 L 2.7851136474609373 1.9607249999999998 L 2.7851136474609373 1.4342249999999999 L 3.107613647460937 1.4342249999999999 L 3.107613647460937 1.5369749999999998 L 2.9133636474609372 1.5369749999999998 M 3.5831253662109375 1.7360999999999998 Q 3.610875366210937 1.7717249999999998 3.610875366210937 1.8174749999999997 Q 3.610875366210937 1.8834749999999998 3.564750366210937 1.9221 Q 3.5186253662109372 1.9607249999999998 3.4361253662109372 1.9607249999999998 L 3.1908753662109373 1.9607249999999998 L 3.1908753662109373 1.4342249999999999 L 3.4278753662109374 1.4342249999999999 Q 3.5081253662109373 1.4342249999999999 3.5535003662109372 1.4709749999999997 Q 3.598875366210937 1.5077249999999998 3.598875366210937 1.570725 Q 3.598875366210937 1.617225 3.574500366210937 1.6479749999999997 Q 3.550125366210937 1.6787249999999998 3.5096253662109373 1.6907249999999998 Q 3.5553753662109373 1.700475 3.5831253662109375 1.7360999999999998 M 3.3191253662109372 1.6472249999999997 L 3.4031253662109373 1.6472249999999997 Q 3.434625366210937 1.6472249999999997 3.4515003662109374 1.6333499999999999 Q 3.468375366210937 1.6194749999999998 3.468375366210937 1.5924749999999999 Q 3.468375366210937 1.5654749999999997 3.4515003662109374 1.5512249999999999 Q 3.434625366210937 1.5369749999999998 3.4031253662109373 1.5369749999999998 L 3.3191253662109372 1.5369749999999998 L 3.3191253662109372 1.6472249999999997 M 3.4635003662109374 1.8425999999999998 Q 3.481125366210937 1.827975 3.481125366210937 1.8002249999999997 Q 3.481125366210937 1.7724749999999998 3.4627503662109373 1.7567249999999999 Q 3.444375366210937 1.7409749999999997 3.412125366210937 1.7409749999999997 L 3.3191253662109372 1.7409749999999997 L 3.3191253662109372 1.857225 L 3.4136253662109373 1.857225 Q 3.445875366210937 1.857225 3.4635003662109374 1.8425999999999998 M 4.186854125976562 1.4672249999999998 Q 4.2491041259765625 1.500225 4.283229125976562 1.55985 Q 4.317354125976562 1.6194749999999998 4.317354125976562 1.6974749999999998 Q 4.317354125976562 1.7747249999999999 4.283229125976562 1.8347249999999997 Q 4.2491041259765625 1.8947249999999998 4.186479125976562 1.927725 Q 4.123854125976562 1.9607249999999998 4.041354125976563 1.9607249999999998 L 3.8441041259765623 1.9607249999999998 L 3.8441041259765623 1.4342249999999999 L 4.041354125976563 1.4342249999999999 Q 4.124604125976562 1.4342249999999999 4.186854125976562 1.4672249999999998 M 4.146354125976562 1.809975 Q 4.186854125976562 1.770225 4.186854125976562 1.6974749999999998 Q 4.186854125976562 1.6247249999999998 4.146354125976562 1.5842249999999998 Q 4.105854125976562 1.5437249999999998 4.033104125976562 1.5437249999999998 L 3.9723541259765622 1.5437249999999998 L 3.9723541259765622 1.8497249999999998 L 4.033104125976562 1.8497249999999998 Q 4.105854125976562 1.8497249999999998 4.146354125976562 1.809975 M 4.517596435546875 1.5369749999999998 L 4.517596435546875 1.6434749999999998 L 4.689346435546875 1.6434749999999998 L 4.689346435546875 1.7424749999999998 L 4.517596435546875 1.7424749999999998 L 4.517596435546875 1.8579749999999997 L 4.7118464355468745 1.8579749999999997 L 4.7118464355468745 1.9607249999999998 L 4.389346435546875 1.9607249999999998 L 4.389346435546875 1.4342249999999999 L 4.7118464355468745 1.4342249999999999 L 4.7118464355468745 1.5369749999999998 L 4.517596435546875 1.5369749999999998 M 4.8821081542968745 1.9472249999999998 Q 4.8363581542968745 1.9284749999999997 4.808983154296874 1.8917249999999999 Q 4.781608154296875 1.8549749999999998 4.780108154296875 1.8032249999999999 L 4.916608154296875 1.8032249999999999 Q 4.919608154296875 1.8324749999999999 4.936858154296875 1.8478499999999998 Q 4.954108154296875 1.863225 4.981858154296875 1.863225 Q 5.010358154296875 1.863225 5.026858154296875 1.8500999999999999 Q 5.043358154296874 1.8369749999999998 5.043358154296874 1.8137249999999998 Q 5.043358154296874 1.7942249999999997 5.030233154296875 1.781475 Q 5.017108154296875 1.7687249999999999 4.9979831542968745 1.7604749999999998 Q 4.978858154296875 1.752225 4.943608154296875 1.7417249999999997 Q 4.892608154296875 1.7259749999999998 4.860358154296875 1.7102249999999999 Q 4.828108154296875 1.6944749999999997 4.804858154296875 1.663725 Q 4.781608154296875 1.6329749999999998 4.781608154296875 1.5834749999999997 Q 4.781608154296875 1.5099749999999998 4.8348581542968745 1.4683499999999998 Q 4.888108154296875 1.4267249999999998 4.973608154296874 1.4267249999999998 Q 5.060608154296875 1.4267249999999998 5.113858154296874 1.4683499999999998 Q 5.167108154296875 1.5099749999999998 5.170858154296875 1.5842249999999998 L 5.032108154296875 1.5842249999999998 Q 5.030608154296875 1.558725 5.013358154296875 1.5440999999999998 Q 4.996108154296874 1.5294749999999997 4.969108154296875 1.5294749999999997 Q 4.945858154296875 1.5294749999999997 4.931608154296875 1.5418499999999997 Q 4.917358154296875 1.5542249999999997 4.917358154296875 1.5774749999999997 Q 4.917358154296875 1.6029749999999998 4.941358154296875 1.617225 Q 4.965358154296875 1.6314749999999998 5.016358154296875 1.6479749999999997 Q 5.067358154296874 1.665225 5.099233154296875 1.6809749999999999 Q 5.131108154296875 1.6967249999999998 5.154358154296875 1.7267249999999998 Q 5.177608154296875 1.7567249999999999 5.177608154296875 1.8039749999999999 Q 5.177608154296875 1.8489749999999998 5.154733154296875 1.8857249999999999 Q 5.131858154296875 1.922475 5.088358154296875 1.9442249999999999 Q 5.0448581542968745 1.9659749999999998 4.985608154296875 1.9659749999999998 Q 4.9278581542968745 1.9659749999999998 4.8821081542968745 1.9472249999999998 M 5.384600830078125 1.4342249999999999 L 5.384600830078125 1.9607249999999998 L 5.256350830078125 1.9607249999999998 L 5.256350830078125 1.4342249999999999 L 5.384600830078125 1.4342249999999999 M 5.827088012695312 1.6007249999999997 Q 5.8128380126953125 1.5744749999999998 5.786213012695312 1.5605999999999998 Q 5.759588012695312 1.546725 5.723588012695313 1.546725 Q 5.661338012695312 1.546725 5.6238380126953125 1.5876 Q 5.586338012695312 1.628475 5.586338012695312 1.6967249999999998 Q 5.586338012695312 1.769475 5.6257130126953125 1.81035 Q 5.665088012695312 1.851225 5.734088012695312 1.851225 Q 5.781338012695312 1.851225 5.813963012695313 1.8272249999999999 Q 5.846588012695312 1.8032249999999999 5.861588012695313 1.758225 L 5.698838012695313 1.758225 L 5.698838012695313 1.663725 L 5.977838012695313 1.663725 L 5.977838012695313 1.7829749999999998 Q 5.963588012695312 1.8309749999999998 5.9294630126953125 1.8722249999999998 Q 5.895338012695312 1.9134749999999998 5.842838012695312 1.938975 Q 5.790338012695313 1.9644749999999997 5.724338012695313 1.9644749999999997 Q 5.646338012695312 1.9644749999999997 5.585213012695312 1.9303499999999998 Q 5.524088012695312 1.8962249999999998 5.489963012695312 1.8354749999999997 Q 5.455838012695312 1.7747249999999999 5.455838012695312 1.6967249999999998 Q 5.455838012695312 1.6187249999999997 5.489963012695312 1.5575999999999999 Q 5.524088012695312 1.4964749999999998 5.584838012695312 1.4623499999999998 Q 5.645588012695312 1.4282249999999999 5.723588012695313 1.4282249999999999 Q 5.818088012695313 1.4282249999999999 5.8829630126953125 1.4739749999999998 Q 5.947838012695312 1.5197249999999998 5.968838012695312 1.6007249999999997 L 5.827088012695312 1.6007249999999997 M 6.52010595703125 1.9607249999999998 L 6.391855957031249 1.9607249999999998 L 6.17735595703125 1.6359749999999997 L 6.17735595703125 1.9607249999999998 L 6.04910595703125 1.9607249999999998 L 6.04910595703125 1.4342249999999999 L 6.17735595703125 1.4342249999999999 L 6.391855957031249 1.7604749999999998 L 6.391855957031249 1.4342249999999999 L 6.52010595703125 1.4342249999999999 L 6.52010595703125 1.9607249999999998 M 6.741366577148438 1.5369749999999998 L 6.741366577148438 1.6434749999999998 L 6.913116577148437 1.6434749999999998 L 6.913116577148437 1.7424749999999998 L 6.741366577148438 1.7424749999999998 L 6.741366577148438 1.8579749999999997 L 6.935616577148437 1.8579749999999997 L 6.935616577148437 1.9607249999999998 L 6.613116577148437 1.9607249999999998 L 6.613116577148437 1.4342249999999999 L 6.935616577148437 1.4342249999999999 L 6.935616577148437 1.5369749999999998 L 6.741366577148438 1.5369749999999998 M 7.287378295898438 1.9607249999999998 L 7.177878295898437 1.7619749999999998 L 7.147128295898438 1.7619749999999998 L 7.147128295898438 1.9607249999999998 L 7.018878295898437 1.9607249999999998 L 7.018878295898437 1.4342249999999999 L 7.234128295898437 1.4342249999999999 Q 7.296378295898437 1.4342249999999999 7.340253295898437 1.4559749999999998 Q 7.384128295898437 1.477725 7.405878295898438 1.5155999999999998 Q 7.427628295898438 1.5534749999999997 7.427628295898438 1.5999749999999997 Q 7.427628295898438 1.652475 7.398003295898437 1.6937249999999997 Q 7.368378295898437 1.734975 7.310628295898438 1.752225 L 7.432128295898437 1.9607249999999998 L 7.287378295898438 1.9607249999999998 M 7.147128295898438 1.6712249999999997 L 7.226628295898437 1.6712249999999997 Q 7.261878295898438 1.6712249999999997 7.279503295898437 1.6539749999999998 Q 7.297128295898437 1.6367249999999998 7.297128295898437 1.605225 Q 7.297128295898437 1.5752249999999999 7.279503295898437 1.5579749999999999 Q 7.261878295898438 1.540725 7.226628295898437 1.540725 L 7.147128295898438 1.540725 L 7.147128295898438 1.6712249999999997" fill="#3682ae" fill-rule="nonzero"></path></g><g clip-path="url(#SvgjsClipPath1002)"><g clip-path="url(#SvgjsClipPath10008e699329-69af-42f9-a0d0-dbd19718a247)"><path d=" M 3.6550382076837775 -1.824875911104403 L 2.28020979338464 -3.8851260276048496 L 4.70548681640625 -7.521049057189004 L 5.4905337660205396 -6.34387713375722 L 3.8503036926132204 -3.8851260276048496 L 4.440085157298068 -3.0012508325568827 L 3.6550382076837775 -1.824875911104403 Z" fill="#102036" transform="matrix(1,0,0,1,0,0)" fill-rule="evenodd"></path></g><g clip-path="url(#SvgjsClipPath10008e699329-69af-42f9-a0d0-dbd19718a247)"><path d=" M 4.70548681640625 -0.25 L 3.920439866791959 -1.4263749214524788 L 5.560669940199278 -3.8851260276048496 L 4.970888475514431 -4.769001222652817 L 5.755935425128721 -5.9461731460846 L 7.1299668374485545 -3.8851260276048496 L 4.70548681640625 -0.25 Z" fill="#3682ae" transform="matrix(1,0,0,1,0,0)" fill-rule="evenodd"></path></g><g clip-path="url(#SvgjsClipPath10008e699329-69af-42f9-a0d0-dbd19718a247)"><path d=" M 3.05489571726798 -0.25 L 3.585699035484343 -1.0454079753452392 L 1.6920223326584 -3.8851260276048496 L 3.5864960374636468 -6.72484407986446 L 3.055692719247284 -7.521049057189004 L 0.6304156962256746 -3.8851260276048496 L 3.05489571726798 -0.25 Z" fill="#3682ae" transform="matrix(1,0,0,1,0,0)" fill-rule="evenodd"></path></g><g clip-path="url(#SvgjsClipPath10008e699329-69af-42f9-a0d0-dbd19718a247)"><path d=" M 6.355280913565214 -0.25 L 5.824477595348852 -1.0454079753452392 L 7.7189513001540995 -3.8851260276048496 L 5.824477595348852 -6.72484407986446 L 6.355280913565214 -7.521049057189004 L 8.780557936586824 -3.8851260276048496 L 6.355280913565214 -0.25 Z" fill="#102036" transform="matrix(1,0,0,1,0,0)" fill-rule="evenodd"></path></g></g></g><defs><clipPath id="SvgjsClipPath1002"><path d=" M 0.6304156962256746 -7.521049057189004 h 8.15014224036115 v 7.271049057189004 h -8.15014224036115 Z"></path></clipPath><clipPath id="SvgjsClipPath10008e699329-69af-42f9-a0d0-dbd19718a247"><path d=" M 0.6304156962256746 -7.521049057189004 L 8.780557936586824 -7.521049057189004 L 8.780557936586824 -0.25 L 0.6304156962256746 -0.25 Z"></path></clipPath></defs></svg>